<svg xmlns="http://www.w3.org/2000/svg" version="1.1" xmlns:xlink="http://www.w3.org/1999/xlink" xmlns:svgjs="http://svgjs.dev/svgjs" viewBox="0 0 800 800"><defs><linearGradient x1="50%" y1="0%" x2="50%" y2="100%" id="ffflurry-grad" gradientTransform="rotate(270)"><stop stop-color="hsl(238, 0%, 100%)" stop-opacity="1" offset="0%"></stop><stop stop-color="hsl(263, 100%, 50%)" stop-opacity="1" offset="45%"></stop><stop stop-color="hsl(173, 52%, 78%)" stop-opacity="1" offset="100%"></stop></linearGradient></defs><rect width="100%" height="100%" fill="hsl(238, 0%, 100%)"></rect><g fill="url(#ffflurry-grad)"><rect width="436" height="3" x="351" y="613.5" rx="1.5" transform="rotate(45, 569, 615)" opacity="0.11"></rect><rect width="456" height="3" x="217" y="277.5" rx="1.5" transform="rotate(45, 445, 279)" opacity="0.20"></rect><rect width="418" height="3" x="-80" y="628.5" rx="1.5" transform="rotate(45, 129, 630)" opacity="0.77"></rect><rect width="325" height="3" x="217.5" y="766.5" rx="1.5" transform="rotate(45, 380, 768)" opacity="0.33"></rect><rect width="212" height="3" x="145" y="644.5" rx="1.5" transform="rotate(45, 251, 646)" opacity="0.79"></rect><rect width="393" height="3" x="147.5" y="520.5" rx="1.5" transform="rotate(45, 344, 522)" opacity="0.29"></rect><rect width="359" height="3" x="385.5" y="359.5" rx="1.5" transform="rotate(45, 565, 361)" opacity="0.11"></rect><rect width="129" height="3" x="77.5" y="311.5" rx="1.5" transform="rotate(45, 142, 313)" opacity="0.32"></rect><rect width="390" height="3" x="33" y="158.5" rx="1.5" transform="rotate(45, 228, 160)" opacity="0.61"></rect><rect width="529" height="3" x="492.5" y="247.5" rx="1.5" transform="rotate(45, 757, 249)" opacity="0.40"></rect><rect width="129" height="3" x="115.5" y="488.5" rx="1.5" transform="rotate(45, 180, 490)" opacity="0.44"></rect><rect width="650" height="3" x="154" y="751.5" rx="1.5" transform="rotate(45, 479, 753)" opacity="0.21"></rect><rect width="326" height="3" x="-118" y="727.5" rx="1.5" transform="rotate(45, 45, 729)" opacity="0.77"></rect><rect width="74" height="3" x="625" y="317.5" rx="1.5" transform="rotate(45, 662, 319)" opacity="0.50"></rect><rect width="607" height="3" x="97.5" y="199.5" rx="1.5" transform="rotate(45, 401, 201)" opacity="0.89"></rect><rect width="603" height="3" x="-175.5" y="166.5" rx="1.5" transform="rotate(45, 126, 168)" opacity="0.56"></rect><rect width="399" height="3" x="392.5" y="492.5" rx="1.5" transform="rotate(45, 592, 494)" opacity="0.98"></rect><rect width="127" height="3" x="107.5" y="231.5" rx="1.5" transform="rotate(45, 171, 233)" opacity="0.66"></rect><rect width="518" height="3" x="-4" y="487.5" rx="1.5" transform="rotate(45, 255, 489)" opacity="0.24"></rect><rect width="148" height="3" x="246" y="658.5" rx="1.5" transform="rotate(45, 320, 660)" opacity="0.61"></rect><rect width="495" height="3" x="91.5" y="35.5" rx="1.5" transform="rotate(45, 339, 37)" opacity="0.68"></rect><rect width="175" height="3" x="160.5" y="262.5" rx="1.5" transform="rotate(45, 248, 264)" opacity="0.31"></rect><rect width="356" height="3" x="324" y="487.5" rx="1.5" transform="rotate(45, 502, 489)" opacity="0.10"></rect><rect width="210" height="3" x="270" y="642.5" rx="1.5" transform="rotate(45, 375, 644)" opacity="0.18"></rect><rect width="280" height="3" x="171" y="603.5" rx="1.5" transform="rotate(45, 311, 605)" opacity="0.75"></rect><rect width="155" height="3" x="664.5" y="27.5" rx="1.5" transform="rotate(45, 742, 29)" opacity="0.07"></rect><rect width="328" height="3" x="-37" y="23.5" rx="1.5" transform="rotate(45, 127, 25)" opacity="0.83"></rect><rect width="334" height="3" x="332" y="576.5" rx="1.5" transform="rotate(45, 499, 578)" opacity="0.58"></rect><rect width="206" height="3" x="-14" y="87.5" rx="1.5" transform="rotate(45, 89, 89)" opacity="0.83"></rect><rect width="337" height="3" x="61.5" y="83.5" rx="1.5" transform="rotate(45, 230, 85)" opacity="0.22"></rect><rect width="334" height="3" x="487" y="52.5" rx="1.5" transform="rotate(45, 654, 54)" opacity="0.66"></rect><rect width="516" height="3" x="378" y="555.5" rx="1.5" transform="rotate(45, 636, 557)" opacity="0.93"></rect><rect width="125" height="3" x="268.5" y="308.5" rx="1.5" transform="rotate(45, 331, 310)" opacity="0.71"></rect><rect width="428" height="3" x="95" y="188.5" rx="1.5" transform="rotate(45, 309, 190)" opacity="0.26"></rect><rect width="392" height="3" x="-33" y="727.5" rx="1.5" transform="rotate(45, 163, 729)" opacity="0.08"></rect><rect width="542" height="3" x="414" y="216.5" rx="1.5" transform="rotate(45, 685, 218)" opacity="0.14"></rect><rect width="589" height="3" x="217.5" y="122.5" rx="1.5" transform="rotate(45, 512, 124)" opacity="0.96"></rect><rect width="247" height="3" x="-8.5" y="485.5" rx="1.5" transform="rotate(45, 115, 487)" opacity="0.52"></rect><rect width="387" height="3" x="206.5" y="115.5" rx="1.5" transform="rotate(45, 400, 117)" opacity="0.40"></rect><rect width="445" height="3" x="45.5" y="570.5" rx="1.5" transform="rotate(45, 268, 572)" opacity="0.26"></rect><rect width="195" height="3" x="474.5" y="421.5" rx="1.5" transform="rotate(45, 572, 423)" opacity="0.21"></rect><rect width="178" height="3" x="78" y="80.5" rx="1.5" transform="rotate(45, 167, 82)" opacity="0.87"></rect><rect width="158" height="3" x="298" y="702.5" rx="1.5" transform="rotate(45, 377, 704)" opacity="0.40"></rect><rect width="282" height="3" x="-90" y="266.5" rx="1.5" transform="rotate(45, 51, 268)" opacity="0.73"></rect><rect width="275" height="3" x="86.5" y="21.5" rx="1.5" transform="rotate(45, 224, 23)" opacity="0.65"></rect><rect width="418" height="3" x="288" y="670.5" rx="1.5" transform="rotate(45, 497, 672)" opacity="0.70"></rect><rect width="754" height="3" x="362" y="624.5" rx="1.5" transform="rotate(45, 739, 626)" opacity="0.86"></rect><rect width="352" height="3" x="239" y="599.5" rx="1.5" transform="rotate(45, 415, 601)" opacity="0.51"></rect><rect width="543" height="3" x="47.5" y="411.5" rx="1.5" transform="rotate(45, 319, 413)" opacity="0.64"></rect><rect width="431" height="3" x="-18.5" y="670.5" rx="1.5" transform="rotate(45, 197, 672)" opacity="0.75"></rect><rect width="290" height="3" x="-114" y="554.5" rx="1.5" transform="rotate(45, 31, 556)" opacity="0.22"></rect><rect width="368" height="3" x="356" y="297.5" rx="1.5" transform="rotate(45, 540, 299)" opacity="0.42"></rect><rect width="106" height="3" x="709" y="163.5" rx="1.5" transform="rotate(45, 762, 165)" opacity="0.73"></rect><rect width="378" height="3" x="443" y="666.5" rx="1.5" transform="rotate(45, 632, 668)" opacity="0.27"></rect><rect width="76" height="3" x="-3" y="148.5" rx="1.5" transform="rotate(45, 35, 150)" opacity="0.81"></rect><rect width="472" height="3" x="205" y="393.5" rx="1.5" transform="rotate(45, 441, 395)" opacity="0.83"></rect><rect width="45" height="3" x="169.5" y="574.5" rx="1.5" transform="rotate(45, 192, 576)" opacity="0.71"></rect><rect width="266" height="3" x="-96" y="35.5" rx="1.5" transform="rotate(45, 37, 37)" opacity="0.57"></rect><rect width="381" height="3" x="-136.5" y="613.5" rx="1.5" transform="rotate(45, 54, 615)" opacity="0.27"></rect><rect width="69" height="3" x="223.5" y="714.5" rx="1.5" transform="rotate(45, 258, 716)" opacity="0.53"></rect><rect width="756" height="3" x="356" y="742.5" rx="1.5" transform="rotate(45, 734, 744)" opacity="0.08"></rect><rect width="97" height="3" x="589.5" y="151.5" rx="1.5" transform="rotate(45, 638, 153)" opacity="0.73"></rect><rect width="392" height="3" x="494" y="428.5" rx="1.5" transform="rotate(45, 690, 430)" opacity="0.53"></rect><rect width="349" height="3" x="274.5" y="37.5" rx="1.5" transform="rotate(45, 449, 39)" opacity="0.82"></rect><rect width="420" height="3" x="-150" y="386.5" rx="1.5" transform="rotate(45, 60, 388)" opacity="0.07"></rect><rect width="651" height="3" x="272.5" y="753.5" rx="1.5" transform="rotate(45, 598, 755)" opacity="0.81"></rect><rect width="497" height="3" x="-210.5" y="481.5" rx="1.5" transform="rotate(45, 38, 483)" opacity="0.82"></rect><rect width="243" height="3" x="172.5" y="90.5" rx="1.5" transform="rotate(45, 294, 92)" opacity="0.25"></rect><rect width="65" height="3" x="716.5" y="505.5" rx="1.5" transform="rotate(45, 749, 507)" opacity="0.52"></rect><rect width="105" height="3" x="74.5" y="773.5" rx="1.5" transform="rotate(45, 127, 775)" opacity="0.18"></rect><rect width="442" height="3" x="56" y="767.5" rx="1.5" transform="rotate(45, 277, 769)" opacity="0.54"></rect><rect width="102" height="3" x="696" y="94.5" rx="1.5" transform="rotate(45, 747, 96)" opacity="0.23"></rect><rect width="506" height="3" x="304" y="213.5" rx="1.5" transform="rotate(45, 557, 215)" opacity="0.84"></rect><rect width="324" height="3" x="599" y="346.5" rx="1.5" transform="rotate(45, 761, 348)" opacity="0.22"></rect><rect width="51" height="3" x="395.5" y="500.5" rx="1.5" transform="rotate(45, 421, 502)" opacity="0.69"></rect><rect width="360" height="3" x="389" y="47.5" rx="1.5" transform="rotate(45, 569, 49)" opacity="0.81"></rect><rect width="660" height="3" x="-126" y="378.5" rx="1.5" transform="rotate(45, 204, 380)" opacity="0.56"></rect></g></svg>